<?xml version="1.0" encoding="utf-8"?>
<!-- Generator: Adobe Illustrator 27.0.0, SVG Export Plug-In . SVG Version: 6.00 Build 0)  -->
<svg version="1.1" id="Layer_1" xmlns="http://www.w3.org/2000/svg" xmlns:xlink="http://www.w3.org/1999/xlink" x="0px" y="0px"
	 viewBox="0 0 67.7 72.8" style="enable-background:new 0 0 67.7 72.8;" xml:space="preserve">
<style type="text/css">
	.st0{fill:#732E1F;stroke:#BF9673;stroke-width:0.75;stroke-miterlimit:10;}
	.st1{fill:#FFFFFF;stroke:#BF9673;stroke-width:0.75;stroke-miterlimit:10;}
	.st2{fill:#A6976F;}
	.st3{font-family:'Blanket-Bold';}
	.st4{font-size:18.0527px;}
	.st5{font-family:'Blanket-Medium';}
	.st6{font-size:16.1758px;}
	.st7{font-size:16.1377px;}
	.st8{font-size:16.1111px;}
	.st9{font-size:16.0828px;}
	.st10{font-size:18.0703px;}
	.st11{font-size:16.1634px;}
	.st12{font-size:16.1048px;}
	.st13{font-size:16.0573px;}
	.st14{font-size:16.0196px;}
	.st15{font-size:16.0121px;}
	.st16{fill:#A6976F;stroke:#A6976F;stroke-width:0.5;stroke-miterlimit:10;}
	.st17{fill:#A6976F;stroke:#A6976F;stroke-width:0.25;stroke-miterlimit:10;}
</style>
<g>
	<path class="st0" d="M23.9,59.6c-3.4-2.3-8.5-6.4-12.8-12.7c-3-4.4-4.8-8.5-5.7-11.7C5,24.6,13.9,16.1,24.3,16.2
		c10.5,0.2,19,9.4,18.2,20.1c-1.5,3.4-3.6,7.5-6.9,12.1C31.3,53.6,27,57.3,23.9,59.6z"/>
	<ellipse class="st1" cx="24.3" cy="32.7" rx="8" ry="8"/>
	<text transform="matrix(0.7524 0.5173 -0.551 0.8345 34.8146 11.4978)" class="st2 st3 st4">W</text>
	<text transform="matrix(0.6435 0.6576 -0.7004 0.7137 43.5023 17.7623)" class="st5 st6">o</text>
	<text transform="matrix(0.5649 0.7317 -0.7794 0.6265 46.9529 21.2859)" class="st5 st7">r</text>
	<text transform="matrix(0.5025 0.7795 -0.8303 0.5574 49.6459 24.8197)" class="st5 st8">l</text>
	<text transform="matrix(0.4256 0.8276 -0.8816 0.4721 50.9918 26.7503)" class="st5 st9">d</text>
	<text transform="matrix(0.7778 -0.4747 0.5056 0.8628 34.2078 70.8026)" class="st2 st3 st10">X</text>
	<text transform="matrix(0.6191 -0.6825 0.727 0.6867 42.0419 65.556)" class="st5 st11">p</text>
	<text transform="matrix(0.4866 -0.7903 0.8418 0.5397 46.4115 60.364)" class="st5 st12">l</text>
	<text transform="matrix(0.3416 -0.8688 0.9254 0.3789 48.4635 57.0303)" class="st5 st13">o</text>
	<text transform="matrix(0.1445 -0.9267 0.9871 0.1603 50.7797 50.6125)" class="st5 st14">r</text>
	<text transform="matrix(-3.820333e-02 -0.938 0.9991 -4.237457e-02 51.6003 44.6108)" class="st5 st15">e</text>
	<g>
		<path class="st16" d="M23.8,26.8c0.2-5.9,0.3-8.5,0.5-8.5c0.2,0,0.3,2.7,0.7,8.4c0.3,0,1.1,0.2,2,1c0.8,0.8,1,1.7,1.1,2
			c3.6,0.2,4.9,0.3,4.9,0.5c0,0.2-1.3,0.5-4.8,0.8c0.3,4.5-2.1,7.7-3.9,7.9c-1.8,0-4.3-3.2-4.1-7.9c-3.1-0.3-4.6-0.5-4.6-0.7
			s1.6-0.5,4.8-0.7c0.2-0.5,0.7-1.3,1.5-2C22.6,27.1,23.3,27,23.8,26.8z"/>
		<path class="st16" d="M19.7,34.8c-3.6-0.3-7.2-0.7-10.8-1c0,0.2,0,0.5-0.2,0.7c2,0.2,4.3,0.7,6.6,1.3c2,0.5,3.6,1.2,5.3,1.8
			C20.3,36.9,20,35.8,19.7,34.8z"/>
		<path class="st16" d="M28.5,34.8c3.4-0.3,6.7-0.7,10.2-1c0,0.2,0,0.5,0.2,0.7c-1.8,0.2-3.9,0.7-6.2,1.3c-1.8,0.5-3.4,1.2-4.9,1.8
			C27.9,36.9,28.2,35.8,28.5,34.8z"/>
		<ellipse class="st17" cx="15.6" cy="38.5" rx="1.8" ry="2.3"/>
		<ellipse class="st17" cx="32.6" cy="38.5" rx="1.8" ry="2.3"/>
	</g>
</g>
</svg>
